# xmcd
#
# Track frame offsets: 
#        150
#        24221
#        44935
#        66087
#        87226
#        101778
#        124798
#        141882
#        158213
#        179835
#        197915
#        219309
#
# Disc length: 3111 seconds
#
# Revision: 0
# Processed by: cddbd v1.5.2PL0 Copyright (c) Steve Scherf et al.
# Submitted via: ExactAudioCopyFreeDBPlugin 1.0
#
DISCID=b40c250c
DTITLE=Marcelo Nascimento - Meu o Tempo
DYEAR=2000
DGENRE=Gospel
TTITLE0=Pedes o Que Queres
TTITLE1=Atire a Primeira Pedra
TTITLE2=Morreu Por Mim Na Cruz
TTITLE3=Clame o Meu Nome
TTITLE4=Quero Contar Pra Pocês
TTITLE5=Solução do Alto
TTITLE6=A Vitória Virá
TTITLE7=Cristo me Deu Vitória
TTITLE8=Meu é o Tempo
TTITLE9=Por Isso Que eu Digo Que Ele é o Meu Rei
TTITLE10=Eu Chorava, Agora Canto
TTITLE11=Ele Que Reina Lá no Céu
EXTD=
EXTT0=
EXTT1=
EXTT2=
EXTT3=
EXTT4=
EXTT5=
EXTT6=
EXTT7=
EXTT8=
EXTT9=
EXTT10=
EXTT11=
PLAYORDER=
